<?xml version="1.0" standalone="no"?>
<!DOCTYPE svg PUBLIC "-//W3C//DTD SVG 20010904//EN"
 "http://www.w3.org/TR/2001/REC-SVG-20010904/DTD/svg10.dtd">
<svg version="1.0" xmlns="http://www.w3.org/2000/svg"
 width="800.000000pt" height="800.000000pt" viewBox="0 0 800.000000 800.000000"
 preserveAspectRatio="xMidYMid meet">
<metadata>
Created by potrace 1.11, written by Peter Selinger 2001-2013
</metadata>
<g transform="translate(0.000000,800.000000) scale(0.100000,-0.100000)"
fill="#000000" stroke="none">
<path d="M3779 7965 c-2 -1 -44 -6 -94 -10 -109 -8 -372 -42 -385 -50 -3 -2
-26 -6 -50 -10 -118 -16 -528 -133 -634 -179 -17 -8 -58 -24 -91 -36 -62 -24
-397 -185 -450 -216 -16 -10 -52 -32 -80 -48 -70 -42 -249 -158 -255 -165 -3
-3 -27 -22 -55 -41 -245 -170 -546 -459 -771 -740 -118 -148 -250 -343 -329
-485 -22 -38 -52 -92 -67 -120 -15 -27 -32 -59 -37 -70 -5 -11 -28 -60 -51
-110 -61 -131 -66 -142 -98 -225 -64 -162 -141 -412 -167 -540 0 -3 -8 -39
-18 -80 -14 -66 -29 -142 -41 -220 -2 -14 -7 -52 -11 -85 -4 -32 -9 -68 -11
-80 -19 -96 -25 -564 -10 -765 4 -57 9 -107 11 -110 1 -3 6 -36 10 -75 3 -38
10 -88 15 -110 5 -22 11 -57 14 -77 30 -198 123 -523 218 -761 50 -127 183
-403 234 -487 22 -36 44 -72 48 -80 15 -33 154 -245 183 -280 6 -8 30 -39 51
-68 92 -124 226 -276 362 -412 154 -154 201 -196 345 -309 50 -39 95 -74 100
-79 118 -94 413 -272 609 -368 302 -148 709 -286 966 -328 19 -3 46 -8 60 -11
52 -11 303 -45 392 -52 51 -4 199 -8 328 -7 244 0 341 6 510 29 14 2 45 7 70
10 59 8 184 32 295 57 458 103 884 286 1294 556 62 41 121 80 130 88 9 7 68
53 131 102 145 113 164 130 320 282 508 497 852 1079 1048 1775 11 39 24 86
28 105 4 19 9 40 10 45 7 28 34 154 39 185 3 19 10 60 15 90 5 30 12 75 15
100 3 25 8 61 10 80 27 197 26 670 0 885 -6 46 -17 128 -20 145 -1 8 -8 49
-15 90 -7 41 -23 125 -37 185 -32 144 -29 130 -53 210 -12 39 -23 79 -25 90
-6 27 -76 221 -115 320 -40 103 -154 338 -210 435 -23 41 -50 89 -60 105 -145
253 -363 530 -610 775 -157 155 -174 170 -332 297 -262 209 -563 388 -913 544
-153 68 -470 168 -675 214 -70 16 -162 34 -195 39 -22 3 -51 8 -65 10 -25 4
-149 20 -250 32 -59 6 -575 15 -581 9z"/>
</g>
</svg>
